<?xml version="1.0" encoding="utf-8"?>
<!-- Generator: Adobe Illustrator 14.0.0, SVG Export Plug-In . SVG Version: 6.00 Build 43363)  -->
<!DOCTYPE svg PUBLIC "-//W3C//DTD SVG 1.1//EN" "http://www.w3.org/Graphics/SVG/1.1/DTD/svg11.dtd">
<svg version="1.1" id="Layer_1" xmlns="http://www.w3.org/2000/svg" xmlns:xlink="http://www.w3.org/1999/xlink" x="0px" y="0px"
	 width="100px" height="94.166px" viewBox="0 0 100 94.166" enable-background="new 0 0 100 94.166" xml:space="preserve">
<g id="modern_large">
	<path fill="#FF9F1C" d="M3.288,50.768c2.71-6.412,7.086-12.353,20.278-15.365c0,0,0.775,0.098,1.253,0.407
		c0.357,0.23,0.416,1.216,0.416,1.852c0,4.695,1.037,14.543,3.402,20.563c2.297,5.866,5.238,20.684-0.236,28.673
		c-2.276,3.322-5.851,6.085-9.076,5.905C6.3,92.102,2.229,79.549,1.062,72.938C-0.386,64.721,1.04,56.092,3.288,50.768z"/>
	<path fill="#2EC4B6" d="M52.631,13.628c3.763,0.499,7.973,2.614,12.978,6.483c3.405,2.633,6.368,5.603,10.266,10.36
		c17.468,21.307,0.835,50.409-9.914,56.415c-8.727,4.88-18.717,9.038-30.994,5.86c-1.396-0.359,0.664-2.4,2.386-6.254
		c1.709-3.815,4.954-13.844,1.017-25.37c-4.499-13.17-5.38-21.655-5.553-24.907c-0.145-2.801,0.478-16.914,8.039-20.879
		C44.691,13.323,47.283,12.913,52.631,13.628z"/>
	<path fill="#2EC4B6" d="M66.807,12.244c-3.133-1.977-6.425-2.88-6.354-3.428c0.086-0.671,6.565-3.375,10.872-2.689
		c6.762,1.082,11.666,3.601,16.954,10.271c5.291,6.676,4.832,15.082,4.372,17.147c-1.309,5.896-2.451,7.963-3.011,7.826
		c-0.319-0.078-0.725-3.09-3.061-8.242c-1.991-4.389-5.261-8.122-7.561-10.596C77.021,20.381,71.53,15.235,66.807,12.244z"/>
	<path fill="#2EC4B6" d="M83.254,3.373c-2.087-1.217-2.894-1.083-2.865-1.391c0.052-0.562,9.018-4.117,15.382,1.599
		c6.526,5.864,3,15.608,1.412,15.372c-0.315-0.042-1.29-2.429-2.589-4.691c-1.186-2.059-3.365-4.939-4.415-5.964
		C88.599,6.76,85.578,4.725,83.254,3.373z"/>
</g>
</svg>
